<svg width="40.000000" height="32.000000" viewBox="0 0 40 32" fill="none" xmlns="http://www.w3.org/2000/svg" xmlns:xlink="http://www.w3.org/1999/xlink">
	<desc>
			Created with Pixso.
	</desc>
	<defs/>
	<path id="Second Level/PARAGRAPH" d="M2.93756 30.1589C5.2319 32.6138 9.11462 32.6138 11.5855 30.1589C13.8798 27.7041 13.8798 24.022 11.409 21.7424C10.1736 20.5151 8.76166 20.1643 7.34976 19.8137C4.52597 19.2876 0.290253 9.46851 13.8798 0.526123L13.5268 0C6.29083 3.68213 4.70245 7.18896 2.76108 10.3452C-1.12164 17.5342 -0.768677 26.6521 2.93756 30.1589ZM29.0578 30.1589C31.3521 32.6138 35.2348 32.6138 37.7057 30.1589C40 27.7041 40 24.022 37.5292 21.7424C36.2938 20.5151 34.8818 20.1643 33.4699 19.8137C30.6461 19.2876 26.4104 9.46851 40 0.526123L39.647 0C32.411 3.68213 30.8226 7.18896 28.8813 10.3452C24.9985 17.5342 25.3515 26.6521 29.0578 30.1589Z" fill="#9D875C" fill-opacity="1.000000" fill-rule="nonzero"/>
</svg>
