<svg width="24.000000" height="24.000000" viewBox="0 0 24 24" fill="none" xmlns="http://www.w3.org/2000/svg" xmlns:xlink="http://www.w3.org/1999/xlink">
	<desc>
			Created with Pixso.
	</desc>
	<defs>
		<clipPath id="clip1_7680">
			<rect id="Instagram / Negative" width="24.000000" height="24.000000" fill="white" fill-opacity="0"/>
		</clipPath>
	</defs>
	<rect id="Instagram / Negative" width="24.000000" height="24.000000" fill="#FFFFFF" fill-opacity="0"/>
	<g clip-path="url(#clip1_7680)">
		<path id="Vector" d="M12 2.16089C15.2063 2.16089 15.5859 2.17505 16.8469 2.2312C18.0188 2.28271 18.6516 2.47974 19.0734 2.6438C19.6313 2.85938 20.0344 3.12183 20.4516 3.53906C20.8734 3.96094 21.1313 4.35938 21.3469 4.91724C21.5109 5.33911 21.7078 5.97656 21.7594 7.1438C21.8156 8.40942 21.8297 8.78906 21.8297 11.9907C21.8297 15.1968 21.8156 15.5767 21.7594 16.8374C21.7078 18.0093 21.5109 18.6421 21.3469 19.064C21.1313 19.6218 20.8687 20.0249 20.4516 20.4421C20.0297 20.864 19.6313 21.1218 19.0734 21.3374C18.6516 21.5015 18.0141 21.6985 16.8469 21.75C15.5813 21.8062 15.2016 21.8203 12 21.8203C8.79375 21.8203 8.41406 21.8062 7.15312 21.75C5.98125 21.6985 5.34843 21.5015 4.92656 21.3374C4.36874 21.1218 3.96562 20.8594 3.54843 20.4421C3.12656 20.0203 2.86874 19.6218 2.65312 19.064C2.48906 18.6421 2.29219 18.0046 2.24063 16.8374C2.18437 15.5718 2.17032 15.1921 2.17032 11.9907C2.17032 8.78442 2.18437 8.40479 2.24063 7.1438C2.29219 5.97192 2.48906 5.33911 2.65312 4.91724C2.86874 4.35938 3.13126 3.9563 3.54843 3.53906C3.97031 3.11719 4.36874 2.85938 4.92656 2.6438C5.34843 2.47974 5.98593 2.28271 7.15312 2.2312C8.41406 2.17505 8.79375 2.16089 12 2.16089ZM12 0C8.74219 0 8.33438 0.0141602 7.05469 0.0703125C5.77969 0.126465 4.90312 0.332764 4.14375 0.628174C3.35156 0.9375 2.68124 1.34521 2.01562 2.01562C1.34531 2.68115 0.9375 3.35156 0.628128 4.13916C0.332809 4.90308 0.126556 5.7749 0.0703125 7.05005C0.0140686 8.33447 0 8.74219 0 12C0 15.2578 0.0140686 15.6655 0.0703125 16.9453C0.126556 18.2202 0.332809 19.0969 0.628128 19.8562C0.9375 20.6484 1.34531 21.3188 2.01562 21.9844C2.68124 22.6499 3.35156 23.0625 4.13907 23.3672C4.90312 23.6626 5.77499 23.8687 7.05 23.925C8.32968 23.9812 8.7375 23.9954 11.9953 23.9954C15.2531 23.9954 15.6609 23.9812 16.9406 23.925C18.2156 23.8687 19.0922 23.6626 19.8516 23.3672C20.6391 23.0625 21.3094 22.6499 21.975 21.9844C22.6406 21.3188 23.0531 20.6484 23.3578 19.8608C23.6531 19.0969 23.8594 18.2251 23.9156 16.95C23.9719 15.6704 23.9859 15.2625 23.9859 12.0046C23.9859 8.74683 23.9719 8.33911 23.9156 7.05933C23.8594 5.78442 23.6531 4.90771 23.3578 4.14844C23.0625 3.35156 22.6547 2.68115 21.9844 2.01562C21.3188 1.3501 20.6484 0.9375 19.8609 0.632812C19.0969 0.337402 18.225 0.131348 16.95 0.0749512C15.6656 0.0141602 15.2578 0 12 0Z" fill="#C1AB81" fill-opacity="1.000000" fill-rule="nonzero"/>
		<path id="Vector" d="M12 5.83594C8.59688 5.83594 5.83594 8.59692 5.83594 12C5.83594 15.4031 8.59688 18.1641 12 18.1641C15.4031 18.1641 18.1641 15.4031 18.1641 12C18.1641 8.59692 15.4031 5.83594 12 5.83594ZM12 15.9985C9.79219 15.9985 8.00156 14.2078 8.00156 12C8.00156 9.79224 9.79219 8.00146 12 8.00146C14.2078 8.00146 15.9984 9.79224 15.9984 12C15.9984 14.2078 14.2078 15.9985 12 15.9985Z" fill="#C1AB81" fill-opacity="1.000000" fill-rule="nonzero"/>
		<path id="Vector" d="M19.8469 5.59229C19.8469 6.38916 19.2 7.03149 18.4078 7.03149C17.6109 7.03149 16.9688 6.38452 16.9688 5.59229C16.9688 4.79541 17.6156 4.15332 18.4078 4.15332C19.2 4.15332 19.8469 4.80029 19.8469 5.59229Z" fill="#C1AB81" fill-opacity="1.000000" fill-rule="nonzero"/>
	</g>
</svg>
