<svg width="24.000000" height="24.000000" viewBox="0 0 24 24" fill="none" xmlns="http://www.w3.org/2000/svg" xmlns:xlink="http://www.w3.org/1999/xlink">
	<desc>
			Created with Pixso.
	</desc>
	<defs>
		<clipPath id="clip1_7681">
			<rect id="TikTok / Negative" width="24.000000" height="24.000000" fill="white" fill-opacity="0"/>
		</clipPath>
	</defs>
	<rect id="TikTok / Negative" width="24.000000" height="24.000000" fill="#FFFFFF" fill-opacity="0"/>
	<g clip-path="url(#clip1_7681)">
		<path id="Vector" d="M17.0727 0L13.028 0L13.028 16.3479C13.028 18.2957 11.4723 19.8958 9.53641 19.8958C7.60049 19.8958 6.04485 18.2957 6.04485 16.3479C6.04485 14.4348 7.56592 12.8696 9.43272 12.8L9.43272 8.69556C5.31888 8.76514 2.00015 12.1392 2.00015 16.3479C2.00015 20.5913 5.38802 24 9.571 24C13.7539 24 17.1418 20.5566 17.1418 16.3479L17.1418 7.96509C18.6629 9.07837 20.5296 9.73901 22.5002 9.77393L22.5002 5.66968C19.458 5.56519 17.0727 3.06079 17.0727 0Z" fill="#C1AB81" fill-opacity="1.000000" fill-rule="nonzero"/>
	</g>
</svg>
