<svg width="24.000000" height="19.500732" viewBox="0 0 24 19.5007" fill="none" xmlns="http://www.w3.org/2000/svg" xmlns:xlink="http://www.w3.org/1999/xlink">
	<desc>
			Created with Pixso.
	</desc>
	<defs/>
	<path id="Vector" d="M7.55016 19.5007C16.6045 19.5007 21.5583 11.9973 21.5583 5.49268C21.5583 5.28174 21.5536 5.06592 21.5442 4.85498C22.5079 4.1582 23.3395 3.29492 24 2.30615C23.1025 2.70532 22.1496 2.96606 21.1739 3.07959C22.2013 2.46362 22.9705 1.49609 23.3391 0.356445C22.3726 0.929199 21.3156 1.33325 20.2134 1.55127C19.4708 0.762207 18.489 0.239746 17.4197 0.0646973C16.3504 -0.110352 15.2532 0.0717773 14.2977 0.582764C13.3423 1.09399 12.5818 1.90552 12.1339 2.89209C11.6859 3.87866 11.5754 4.98535 11.8195 6.04102C9.8625 5.94287 7.94794 5.43433 6.19998 4.54883C4.45203 3.66333 2.90969 2.42017 1.67297 0.900146C1.0444 1.98389 0.852058 3.26636 1.13503 4.48682C1.41801 5.70728 2.15506 6.77417 3.1964 7.4707C2.41463 7.4458 1.64998 7.23535 0.965622 6.85669L0.965622 6.91748C0.964928 8.05493 1.3581 9.15723 2.07831 10.0376C2.79852 10.9177 3.80132 11.5212 4.91625 11.7456C4.19205 11.9438 3.43198 11.9727 2.69485 11.8301C3.00945 12.8081 3.62157 13.6636 4.44577 14.2771C5.26997 14.8906 6.26512 15.2314 7.29234 15.252C5.54842 16.6218 3.39417 17.3647 1.17656 17.3613C0.783287 17.3608 0.390396 17.3367 0 17.2891C2.25285 18.7344 4.87354 19.5022 7.55016 19.5007Z" fill="#C1AB81" fill-opacity="1.000000" fill-rule="nonzero"/>
</svg>
